<?xml version="1.0" standalone="no"?>
<!DOCTYPE svg PUBLIC "-//W3C//DTD SVG 20010904//EN"
 "http://www.w3.org/TR/2001/REC-SVG-20010904/DTD/svg10.dtd">
<svg version="1.0" xmlns="http://www.w3.org/2000/svg"
 width="1000.000000pt" height="1000.000000pt" viewBox="0 0 1000.000000 1000.000000"
 preserveAspectRatio="xMidYMid meet">
<metadata>
Created by potrace 1.11, written by Peter Selinger 2001-2013
</metadata>
<g transform="translate(0.000000,1000.000000) scale(0.100000,-0.100000)"
fill="#000000" stroke="none">
<path d="M4028 9758 c-2 -30 -4 -57 -13 -153 -4 -44 -9 -105 -11 -135 -8 -103
-12 -155 -13 -155 -1 0 -4 -25 -6 -55 -5 -71 -14 -190 -20 -260 -3 -30 -7 -80
-10 -110 -2 -30 -7 -80 -10 -110 -2 -30 -7 -91 -10 -135 -3 -44 -8 -96 -10
-115 -5 -34 -9 -82 -20 -230 -3 -41 -8 -102 -11 -135 -3 -33 -7 -80 -9 -105
-9 -108 -16 -199 -20 -245 -2 -27 -7 -84 -11 -125 -4 -41 -7 -90 -8 -107 0
-18 -3 -33 -6 -33 -3 0 -5 -26 -6 -58 0 -51 -7 -145 -19 -257 -2 -22 -6 -76
-9 -120 -3 -44 -8 -100 -10 -125 -6 -59 -16 -172 -21 -235 -2 -27 -7 -84 -10
-125 -3 -41 -9 -78 -13 -82 -4 -4 -34 0 -67 8 -33 9 -89 22 -125 30 -36 8 -74
17 -85 20 -11 3 -29 7 -40 9 -23 4 -30 6 -150 34 -49 12 -106 26 -125 31 -33
8 -84 20 -95 21 -2 0 -19 5 -37 10 -18 5 -64 17 -103 25 -70 15 -101 23 -120
28 -5 2 -28 6 -50 11 -22 4 -44 10 -49 13 -6 3 -19 7 -30 8 -12 1 -48 9 -82
18 -34 8 -72 17 -85 20 -23 5 -62 14 -84 20 -5 1 -37 9 -70 16 -33 8 -62 14
-65 15 -3 1 -32 7 -65 14 -33 7 -67 15 -75 18 -8 2 -15 4 -15 4 0 0 -18 4 -40
10 -22 5 -51 12 -65 15 -14 3 -72 17 -130 31 -58 14 -112 26 -120 28 -8 2 -33
8 -55 13 -22 6 -51 13 -65 16 -14 3 -54 12 -90 21 -36 9 -74 18 -85 20 -11 2
-87 20 -170 39 -82 20 -159 38 -170 40 -11 2 -27 7 -35 10 -8 3 -26 7 -40 10
-40 6 -252 56 -285 66 -16 5 -42 11 -58 14 -15 3 -35 7 -45 10 -9 3 -33 7 -52
10 l-35 5 -29 -92 c-16 -51 -31 -96 -32 -102 -1 -5 -13 -42 -27 -82 -14 -40
-22 -74 -19 -77 3 -4 1 -6 -5 -6 -5 0 -10 -6 -10 -12 0 -11 -71 -238 -90 -288
-3 -8 -7 -19 -8 -25 -2 -5 -12 -37 -23 -70 -42 -125 -179 -555 -181 -567 -1
-7 -15 -46 -37 -103 -9 -24 -8 -22 -18 -65 -5 -19 -12 -39 -15 -45 -4 -5 -18
-46 -31 -90 -12 -44 -27 -91 -33 -105 -6 -14 -11 -29 -13 -35 -1 -5 -7 -25
-13 -43 -10 -33 -10 -33 42 -56 74 -33 111 -49 117 -51 6 -2 4 -1 250 -105
107 -45 209 -88 225 -95 121 -54 195 -82 199 -77 3 3 6 0 6 -6 0 -7 4 -12 9
-12 5 0 22 -5 38 -12 15 -6 30 -12 33 -13 17 -6 48 -19 182 -78 31 -14 59 -23
62 -19 3 3 6 0 6 -6 0 -6 14 -13 30 -17 17 -4 43 -13 58 -20 78 -37 140 -65
146 -65 4 0 28 -9 54 -21 63 -28 89 -39 232 -99 41 -17 89 -38 105 -45 17 -7
54 -23 84 -35 30 -11 73 -29 95 -39 23 -11 70 -31 106 -45 36 -15 73 -31 83
-37 15 -8 33 5 110 80 132 128 175 169 246 231 35 30 78 69 96 85 18 17 43 39
56 50 42 35 133 109 152 125 11 8 24 20 31 26 9 9 154 120 263 202 17 13 82
59 145 103 62 43 118 82 123 87 11 9 266 172 292 187 10 5 32 19 48 31 17 11
37 24 45 28 8 4 24 12 35 19 11 7 59 34 105 62 47 27 88 54 92 60 4 5 8 6 8 2
0 -4 17 4 37 18 21 14 43 25 50 25 7 0 13 5 13 10 0 6 6 10 13 10 7 0 29 11
49 25 20 14 44 25 52 25 8 0 16 4 18 9 4 10 350 186 361 183 4 -1 7 3 7 8 0 6
4 10 9 10 5 0 66 27 136 60 70 33 133 60 141 60 8 0 14 5 14 10 0 6 6 10 13
10 8 0 27 6 43 14 63 31 250 109 262 109 6 0 12 4 12 9 0 4 7 8 15 8 8 0 39
11 69 25 30 14 57 25 60 25 2 0 17 5 33 12 15 6 30 12 33 13 6 2 50 19 95 38
17 6 33 12 38 13 4 1 9 3 12 4 3 1 8 3 13 5 4 1 21 7 37 14 17 7 53 21 80 31
68 24 327 117 395 141 30 11 61 21 68 21 11 1 12 20 8 87 -3 47 -8 102 -10
121 -3 19 -8 76 -11 125 -13 180 -16 211 -21 260 -5 58 -13 145 -19 230 -2 33
-7 87 -10 120 -4 33 -7 84 -8 113 -1 28 -4 52 -7 52 -3 0 -6 30 -7 68 -2 37
-5 90 -7 117 -3 28 -8 82 -11 120 -3 39 -7 95 -10 125 -2 30 -7 82 -9 115 -3
33 -8 87 -11 120 -5 59 -9 105 -20 235 -8 96 -14 169 -19 220 -5 53 -17 206
-22 270 -1 25 -3 45 -4 45 -1 0 -11 131 -13 183 -1 17 -6 32 -11 32 -4 0 -3 6
3 13 6 8 8 16 5 19 -6 7 -11 48 -13 106 l-1 42 -970 0 -970 0 -2 -22z"/>
<path d="M9345 7270 c-46 -7 -75 -11 -190 -25 -22 -2 -51 -7 -64 -10 -14 -2
-47 -7 -75 -10 -28 -3 -58 -8 -66 -10 -8 -2 -33 -7 -55 -10 -87 -13 -140 -22
-140 -25 0 -1 -16 -3 -35 -5 -19 -3 -46 -7 -60 -10 -14 -3 -41 -8 -60 -11 -19
-3 -53 -9 -75 -14 -22 -5 -53 -11 -70 -14 -36 -7 -56 -11 -114 -25 -25 -5 -48
-8 -52 -5 -4 2 -10 0 -13 -5 -3 -4 -25 -12 -48 -16 -24 -4 -47 -9 -53 -11 -20
-6 -70 -16 -82 -17 -7 0 -13 -4 -13 -9 0 -5 -4 -7 -8 -4 -8 5 -205 -44 -342
-84 -36 -11 -74 -21 -85 -23 -11 -2 -27 -7 -35 -10 -33 -12 -126 -41 -140 -42
-14 -2 -22 -4 -65 -21 -11 -4 -24 -8 -30 -10 -19 -4 -230 -74 -245 -81 -19 -8
-19 -8 -55 -18 -16 -4 -34 -10 -40 -14 -5 -3 -14 -6 -20 -7 -8 -2 -120 -43
-195 -71 -8 -4 -18 -7 -22 -7 -3 -1 -10 -4 -14 -8 -4 -5 -16 -8 -26 -8 -10 0
-18 -5 -18 -10 0 -6 -3 -9 -7 -8 -12 4 -163 -54 -169 -63 -3 -5 -12 -9 -20 -9
-13 0 -70 -23 -232 -96 -29 -13 -54 -24 -56 -24 -3 0 -58 -25 -123 -56 -65
-31 -156 -74 -203 -96 -47 -22 -87 -40 -89 -38 -2 1 -7 -2 -10 -7 -9 -13 -49
-33 -65 -33 -8 0 -16 -4 -18 -8 -2 -6 -146 -84 -235 -126 -13 -6 -23 -15 -23
-19 0 -5 -4 -6 -9 -3 -5 3 -14 -1 -21 -9 -7 -8 -16 -15 -21 -15 -20 0 -586
-338 -636 -380 -7 -5 -15 -10 -18 -10 -4 0 -21 -11 -39 -25 -18 -14 -38 -25
-44 -25 -7 0 -12 -3 -12 -8 0 -4 -25 -22 -55 -40 -30 -18 -55 -38 -55 -44 0
-6 -3 -8 -6 -5 -4 4 -23 -6 -43 -21 -20 -15 -49 -36 -66 -47 -16 -10 -38 -27
-49 -37 -11 -10 -25 -18 -32 -18 -6 0 -14 -7 -18 -15 -3 -8 -12 -15 -20 -15
-8 0 -16 -3 -18 -8 -1 -4 -28 -25 -58 -47 -30 -22 -61 -45 -67 -51 -7 -7 -28
-22 -48 -34 -19 -12 -35 -25 -35 -30 0 -5 -6 -10 -14 -12 -7 -2 -28 -15 -47
-31 -19 -15 -84 -67 -145 -116 -105 -84 -127 -102 -175 -143 -11 -9 -38 -31
-59 -48 -22 -18 -50 -42 -63 -53 -13 -12 -49 -44 -81 -72 -32 -27 -75 -66 -96
-85 -21 -19 -80 -73 -131 -120 -85 -77 -540 -530 -533 -530 2 0 -13 -18 -34
-39 -96 -101 -142 -151 -142 -155 0 -3 -12 -17 -27 -33 -24 -24 -58 -63 -153
-173 -20 -23 -80 -96 -102 -124 -10 -11 -24 -28 -31 -36 -8 -8 -47 -58 -88
-110 -40 -52 -76 -97 -79 -100 -3 -3 -18 -23 -35 -45 -16 -22 -31 -42 -34 -45
-4 -3 -18 -23 -33 -45 -15 -22 -39 -53 -53 -69 -14 -16 -25 -32 -25 -35 0 -3
-10 -18 -23 -33 -12 -14 -58 -79 -102 -144 -44 -64 -95 -137 -112 -161 -18
-23 -31 -43 -28 -43 3 0 -4 -9 -15 -20 -11 -11 -20 -26 -20 -34 0 -8 -3 -16
-7 -18 -13 -5 -256 -387 -270 -424 -4 -10 -13 -25 -20 -34 -7 -8 -12 -18 -11
-21 2 -4 -4 -15 -13 -25 -9 -11 -34 -50 -54 -89 -21 -38 -41 -72 -44 -75 -3
-3 -17 -27 -30 -55 -14 -27 -33 -61 -42 -76 -10 -14 -15 -30 -11 -35 7 -11
100 -74 108 -74 3 0 10 -5 17 -10 7 -6 48 -34 92 -62 83 -52 100 -63 298 -192
65 -42 120 -76 123 -76 3 0 14 -9 26 -20 12 -11 28 -20 35 -20 7 0 13 -4 13
-9 0 -5 8 -11 17 -14 10 -4 59 -34 108 -67 50 -33 97 -63 105 -67 8 -4 20 -11
25 -16 6 -4 55 -37 110 -72 55 -35 105 -67 110 -72 6 -5 34 -22 62 -39 29 -16
53 -32 53 -36 0 -5 5 -8 11 -8 6 0 36 -17 67 -39 32 -21 80 -52 107 -69 28
-17 55 -35 60 -39 6 -5 53 -35 105 -67 52 -33 97 -62 100 -65 3 -4 14 -11 25
-18 91 -53 205 -129 205 -135 0 -5 6 -8 13 -8 11 0 77 -41 122 -75 25 -19 34
-19 42 3 3 9 12 24 19 32 7 8 13 20 14 25 1 11 52 117 60 125 3 3 16 28 30 55
14 28 29 53 35 57 5 4 6 8 1 8 -5 0 -4 6 2 12 5 7 22 34 36 60 74 135 109 196
198 345 26 43 55 91 65 108 10 16 21 34 26 40 4 5 33 51 65 100 31 50 65 99
74 109 10 11 18 25 18 31 0 7 9 20 20 30 11 10 20 24 20 31 0 7 3 14 8 16 4 2
20 23 37 48 16 25 32 47 35 50 3 3 19 25 35 50 17 24 37 52 45 61 8 9 44 57
80 107 36 50 68 92 73 92 4 0 7 6 7 14 0 8 3 16 8 18 4 2 52 59 107 128 55 68
107 132 116 140 8 9 22 25 30 37 13 19 92 111 134 157 11 12 52 58 90 101 176
197 605 625 628 625 4 0 5 5 2 10 -3 6 -2 10 3 10 5 0 22 12 38 26 84 77 115
104 179 159 39 33 75 64 81 70 6 5 26 22 45 37 19 14 45 36 59 48 14 12 38 31
54 43 16 12 39 31 50 42 12 11 51 41 86 67 36 26 74 56 86 65 11 10 48 38 83
63 35 25 76 55 91 67 15 13 33 23 39 23 6 0 11 4 11 9 0 5 17 20 38 32 20 13
39 27 40 31 2 4 8 8 14 8 5 0 16 6 23 13 32 28 45 37 52 37 4 0 21 11 37 25
16 14 33 25 37 25 4 0 14 6 21 13 18 17 61 44 72 45 5 0 12 4 15 9 3 5 31 24
61 43 30 19 57 37 60 40 3 3 19 12 35 20 17 8 32 18 35 21 5 7 18 15 172 104
57 33 109 65 116 72 8 7 18 11 23 8 5 -4 9 -2 9 2 0 5 12 14 28 21 15 6 63 32
107 57 74 41 500 255 605 303 86 39 135 60 160 67 14 4 27 11 30 14 5 6 202
89 225 95 6 2 24 9 40 15 17 7 35 14 40 15 6 2 24 9 40 16 35 14 199 74 265
96 25 8 54 19 65 24 24 10 182 62 190 61 2 0 24 7 47 15 47 17 77 25 96 26 6
1 12 4 12 8 0 3 8 6 18 7 9 1 82 20 162 43 156 44 172 48 210 56 14 3 34 8 45
11 11 4 25 8 30 9 14 3 56 12 83 18 13 3 31 7 40 10 9 3 28 7 42 10 41 7 214
46 228 51 10 4 9 12 -2 40 -8 19 -15 39 -15 43 -1 7 -118 376 -128 402 -3 8
-7 20 -9 25 -1 6 -9 29 -18 53 -8 23 -13 42 -9 42 3 0 1 6 -5 13 -6 6 -11 15
-11 19 -1 4 -3 13 -6 20 -2 7 -25 81 -51 163 -26 83 -53 164 -60 180 -10 24
-29 85 -39 125 -1 3 -23 70 -49 150 -26 80 -49 153 -51 163 -2 9 -7 22 -10 27
-3 5 -8 18 -10 27 -2 10 -15 52 -30 93 -14 41 -27 80 -29 85 -9 34 -58 185
-59 184 -1 -1 -24 -5 -52 -9z"/>
<path d="M7140 3913 c-8 -3 -25 -15 -37 -26 -13 -11 -23 -17 -23 -14 0 4 -8 0
-17 -8 -10 -7 -54 -39 -98 -71 -68 -47 -191 -143 -231 -179 -6 -5 -38 -32 -70
-60 -119 -102 -408 -399 -504 -518 -14 -17 -39 -47 -55 -67 -17 -19 -46 -55
-65 -80 -19 -25 -39 -48 -45 -52 -6 -5 -6 -8 0 -8 6 0 5 -4 -2 -8 -19 -12
-128 -166 -206 -292 -40 -64 -78 -124 -84 -135 -22 -35 -87 -158 -107 -205
-11 -25 -22 -47 -26 -50 -3 -3 -7 -12 -9 -20 -2 -8 -6 -23 -8 -32 -3 -10 0
-18 6 -18 6 0 11 -6 11 -12 0 -7 22 -36 48 -64 100 -110 157 -177 160 -190 2
-8 7 -14 11 -14 4 0 37 -35 73 -77 68 -80 76 -90 156 -182 51 -58 68 -78 110
-129 15 -18 41 -47 57 -66 17 -18 49 -55 72 -82 23 -27 51 -60 63 -74 12 -14
36 -42 53 -64 18 -21 41 -48 53 -60 11 -11 47 -52 80 -91 32 -38 61 -72 64
-75 3 -3 30 -34 60 -70 30 -36 60 -70 65 -76 6 -6 30 -35 55 -64 25 -29 50
-58 55 -64 9 -10 154 -179 215 -250 14 -16 40 -45 57 -65 18 -20 33 -40 33
-44 0 -8 84 46 108 70 8 8 27 20 43 28 16 9 29 19 29 23 0 4 15 16 33 27 17
10 37 23 42 27 6 5 39 30 75 56 36 25 67 49 70 52 3 3 25 19 50 35 25 16 47
32 50 35 3 3 70 53 150 110 80 58 150 108 155 113 9 6 72 53 140 101 11 8 111
81 223 163 111 81 210 153 219 158 10 6 22 15 29 20 6 6 24 19 40 30 15 11 39
29 53 41 14 12 37 27 50 34 13 6 20 15 15 19 -13 9 -114 178 -114 190 0 5 -3
11 -7 13 -5 2 -26 32 -47 68 -22 36 -51 83 -65 105 -14 22 -25 43 -26 47 0 3
-10 18 -22 31 -12 14 -18 28 -15 32 4 3 0 10 -8 15 -8 5 -15 13 -15 17 -1 4
-13 27 -28 51 -15 24 -33 54 -39 68 -6 13 -15 24 -20 24 -4 0 -8 4 -8 9 0 5
-22 46 -50 90 -27 44 -50 83 -50 86 0 3 -13 24 -30 47 -16 22 -30 47 -30 55 0
7 -4 13 -10 13 -5 0 -10 7 -10 15 0 8 -4 15 -10 15 -5 0 -10 4 -10 8 0 7 -42
80 -127 220 -13 20 -39 64 -58 97 -48 80 -55 93 -87 142 -16 23 -28 44 -28 47
0 3 -13 25 -30 49 -16 25 -30 50 -30 56 0 6 -4 11 -9 11 -5 0 -12 11 -15 25
-4 14 -11 25 -16 25 -6 0 -10 5 -10 11 0 6 -20 42 -45 80 -24 38 -54 86 -65
106 -23 44 -43 76 -50 83 -3 3 -16 25 -30 50 -25 47 -63 107 -79 126 -6 7 -7
15 -4 18 4 3 1 6 -5 6 -7 0 -12 5 -12 10 0 6 -18 38 -40 71 -22 33 -40 67 -40
75 0 8 -4 14 -9 14 -5 0 -16 15 -25 33 -9 17 -26 46 -36 62 -11 17 -29 47 -40
68 -11 20 -21 37 -23 36 -1 0 -9 -3 -17 -6z"/>
</g>
</svg>
